<?xml version="1.0" standalone="no"?>
<!DOCTYPE svg PUBLIC "-//W3C//DTD SVG 20010904//EN"
 "http://www.w3.org/TR/2001/REC-SVG-20010904/DTD/svg10.dtd">
<svg version="1.0" xmlns="http://www.w3.org/2000/svg"
 width="16.000000pt" height="16.000000pt" viewBox="0 0 16.000000 16.000000"
 preserveAspectRatio="xMidYMid meet">
<metadata>
Created by potrace 1.11, written by Peter Selinger 2001-2013
</metadata>
<g transform="translate(0.000000,16.000000) scale(0.003200,-0.003200)"
fill="#000000" stroke="none">
<path d="M2315 4994 c-216 -22 -372 -51 -532 -100 -807 -244 -1433 -870 -1677
-1677 -73 -241 -100 -437 -101 -717 0 -278 28 -474 101 -717 244 -808 869
-1433 1677 -1677 242 -73 437 -101 717 -101 280 0 475 28 717 101 808 244
1433 869 1677 1677 73 242 101 437 101 717 0 280 -28 475 -101 717 -244 807
-870 1433 -1677 1677 -115 35 -264 67 -397 86 -79 11 -436 21 -505 14z m565
-264 c833 -147 1506 -729 1771 -1533 81 -246 115 -490 106 -771 -11 -355 -93
-669 -257 -981 -58 -110 -169 -282 -200 -310 -19 -17 -20 -17 -31 9 -12 24
-10 29 29 62 67 57 85 106 71 195 -5 30 -5 56 0 59 16 10 54 91 54 116 0 33
-14 46 -56 53 l-34 6 23 70 c29 89 29 100 -1 182 -16 42 -22 69 -15 71 30 10
42 36 34 76 -10 54 -9 81 6 139 10 41 9 51 -4 72 -22 33 -36 32 -92 -11 -45
-35 -48 -36 -62 -18 -22 29 -86 170 -118 261 -27 77 -28 82 -11 100 23 27 22
85 -3 108 -27 24 -46 13 -55 -32 l-7 -38 -43 48 c-44 48 -44 48 -94 41 -48 -6
-52 -5 -80 25 -42 45 -57 94 -37 123 18 25 21 64 7 73 -5 3 -23 -20 -40 -51
l-30 -57 20 -48 c12 -27 39 -65 62 -85 36 -33 43 -36 86 -31 43 5 47 3 79 -33
18 -22 41 -42 52 -45 11 -4 20 -13 20 -21 0 -20 65 -194 102 -273 35 -72 82
-131 107 -131 9 0 33 14 54 31 45 37 58 31 33 -16 -16 -30 -17 -42 -8 -90 11
-52 10 -56 -13 -79 -31 -31 -31 -36 0 -111 30 -73 31 -89 5 -162 -36 -102 -23
-143 44 -143 14 0 26 -2 26 -5 0 -3 -15 -34 -34 -69 -31 -59 -33 -68 -24 -105
17 -66 4 -103 -57 -164 -30 -30 -55 -64 -55 -75 0 -10 11 -35 24 -55 19 -28
22 -38 12 -46 -7 -6 -15 -8 -19 -5 -14 14 -51 -22 -72 -70 -16 -37 -48 -76
-113 -137 -316 -301 -716 -500 -1167 -580 -113 -20 -163 -24 -375 -24 -276 0
-399 16 -623 81 -769 221 -1368 837 -1568 1611 -38 148 -37 158 13 127 29 -18
38 -31 38 -52 0 -54 22 -107 60 -142 20 -19 75 -89 122 -155 47 -66 110 -147
140 -181 30 -33 64 -77 77 -97 24 -40 95 -95 156 -123 22 -10 48 -25 58 -33
17 -14 20 -14 33 3 18 25 13 31 -59 67 -88 45 -113 64 -157 124 -21 29 -55 70
-75 91 -19 22 -79 100 -132 174 -53 74 -112 149 -130 165 -28 25 -36 40 -42
85 -9 71 -21 92 -66 115 -85 46 -104 119 -105 398 0 144 2 161 20 184 21 27
27 68 10 78 -40 25 56 411 165 657 l46 107 33 -6 c49 -8 116 15 153 52 l33 33
10 -40 c8 -29 8 -49 -1 -75 -16 -48 2 -103 43 -138 66 -56 139 -1 221 165 48
98 52 109 49 170 -2 62 0 68 35 117 21 29 47 67 58 85 19 31 24 33 88 38 71 5
81 12 93 60 16 62 82 148 135 176 39 20 83 18 103 -5 14 -15 23 -18 42 -11 45
18 200 40 274 40 80 0 160 -28 208 -72 30 -29 28 -51 -9 -104 -32 -47 -35 -77
-7 -82 9 -2 57 20 107 49 57 32 108 53 134 56 40 5 43 3 67 -37 14 -23 38 -48
53 -56 25 -14 31 -14 52 0 29 19 53 90 63 186 l7 74 74 12 c135 23 165 76 76
136 -41 27 -58 48 -92 113 -22 44 -46 86 -53 93 -16 17 -43 1 -70 -43 -12 -19
-28 -35 -35 -35 -8 0 -24 22 -37 50 -28 60 -42 67 -73 36 -36 -36 -42 -72 -16
-106 11 -16 21 -32 21 -35 0 -3 -42 -5 -93 -5 -68 0 -110 6 -156 21 -46 16
-68 19 -84 12 -12 -6 -31 -7 -42 -2 -32 12 -164 9 -250 -6 -105 -19 -107 -19
-60 11 72 45 158 81 270 114 133 39 167 58 201 116 14 24 36 46 47 49 129 31
538 28 727 -5z m-820 -31 c-17 -31 -63 -54 -168 -84 -53 -15 -122 -38 -152
-52 -86 -38 -208 -112 -230 -141 -19 -23 -19 -27 -5 -41 13 -13 24 -13 87 -2
230 41 311 45 360 20 10 -6 26 -5 41 2 18 8 32 7 63 -6 87 -37 321 -28 356 15
9 11 21 20 26 20 6 0 25 15 43 34 l32 35 23 -49 c32 -69 63 -108 108 -135 38
-23 38 -23 15 -35 -12 -7 -57 -15 -98 -19 l-76 -6 -13 -103 c-7 -57 -20 -120
-28 -140 l-16 -37 -21 30 c-54 73 -75 88 -121 83 -24 -3 -71 -19 -105 -37 -34
-17 -63 -31 -65 -31 -3 0 1 13 7 30 24 63 -37 128 -159 171 -49 18 -74 20
-149 16 -49 -3 -125 -13 -167 -22 -72 -15 -80 -14 -109 1 -67 34 -159 -5 -230
-100 -21 -27 -43 -69 -49 -93 -7 -23 -18 -43 -24 -44 -6 0 -31 0 -56 1 -54 2
-95 -25 -116 -75 -7 -18 -29 -51 -49 -74 -42 -51 -49 -76 -41 -135 6 -37 2
-57 -23 -116 -39 -91 -93 -172 -127 -190 -24 -14 -28 -13 -50 13 -22 26 -23
34 -18 96 7 74 -13 157 -43 183 -13 11 -18 9 -32 -11 -50 -72 -76 -93 -124
-98 -26 -3 -47 -3 -47 1 0 15 117 197 184 286 89 120 263 299 380 395 252 204
548 354 859 435 138 36 141 36 127 9z m300 -222 c0 -5 -7 -4 -15 3 -8 7 -15
20 -15 29 1 13 3 13 15 -3 8 -11 15 -24 15 -29z"/>
<path d="M3115 4324 c-10 -10 -13 -24 -10 -38 9 -28 61 -77 78 -70 20 7 37 62
27 88 -14 38 -66 49 -95 20z"/>
<path d="M3380 4250 c-6 -12 -10 -42 -8 -68 2 -37 7 -48 23 -51 11 -2 35 -14
55 -27 42 -29 54 -30 80 -4 37 37 26 71 -37 123 -63 51 -96 59 -113 27z m120
-107 c0 -19 -7 -17 -46 15 -18 15 -34 35 -34 45 0 15 7 13 40 -14 22 -18 40
-38 40 -46z"/>
<path d="M3728 4079 c-10 -6 -18 -18 -18 -28 0 -15 6 -17 36 -12 42 7 48 18
19 37 -14 9 -25 10 -37 3z"/>
<path d="M2179 3930 c-43 -25 -107 -245 -87 -300 22 -63 -35 -100 -156 -100
-60 0 -77 -4 -88 -18 -7 -9 -25 -25 -40 -35 -35 -22 -35 -39 0 -79 37 -41 57
-33 84 32 11 27 24 50 29 50 4 0 35 -16 68 -36 52 -31 73 -37 148 -44 48 -4
96 -11 106 -15 38 -16 14 -76 -63 -150 -29 -27 -65 -69 -81 -92 -43 -62 -78
-77 -165 -70 -80 6 -103 -3 -129 -53 -14 -27 -13 -28 11 -33 20 -3 28 1 36 19
11 23 14 24 94 17 l83 -6 38 40 c129 134 233 256 239 279 4 14 2 36 -4 49 -19
41 -55 56 -144 62 -46 3 -96 13 -113 21 l-30 16 33 10 c19 5 47 23 64 39 27
27 29 35 25 81 -5 57 16 169 44 233 10 24 20 43 22 43 2 0 29 -24 59 -52 30
-29 94 -90 141 -135 51 -49 96 -101 109 -128 22 -46 35 -54 55 -34 21 21 -24
88 -121 184 -224 221 -231 226 -267 205z"/>
<path d="M3794 3925 c-540 -79 -1045 -332 -1411 -706 -157 -161 -233 -252
-438 -524 -99 -132 -251 -334 -338 -449 l-158 -210 294 -294 295 -295 83 65
c46 35 233 176 414 313 450 339 507 386 681 559 281 280 471 583 598 953 74
217 141 558 115 589 -13 16 -15 16 -135 -1z m-724 -716 c128 -58 193 -209 146
-341 -37 -103 -142 -174 -256 -172 -77 1 -123 19 -178 69 -61 54 -86 115 -86
201 1 58 6 80 29 123 30 55 80 101 137 126 50 21 154 19 208 -6z"/>
<path d="M3952 3157 c-45 -46 -51 -70 -26 -105 37 -54 124 5 124 84 0 78 -35
85 -98 21z m38 -68 c-9 -15 -15 -18 -23 -10 -7 7 -5 16 8 32 22 24 32 10 15
-22z"/>
<path d="M1267 3058 c-12 -6 -17 -22 -17 -50 0 -42 19 -168 26 -168 1 0 33 21
69 46 54 38 65 50 65 74 0 31 -13 45 -53 55 -15 4 -32 15 -37 25 -12 23 -32
30 -53 18z m93 -103 c0 -7 -11 -22 -24 -34 l-23 -22 -7 23 c-3 13 -6 33 -6 45
0 20 2 20 30 10 17 -6 30 -16 30 -22z"/>
<path d="M685 3030 c-30 -31 -34 -56 -21 -132 8 -45 7 -48 -33 -90 -68 -74
-76 -137 -24 -178 36 -28 67 -25 144 15 38 19 78 35 89 35 13 0 54 -30 101
-72 l79 -73 0 -55 1 -55 24 45 c13 25 24 53 25 64 0 10 -30 47 -67 83 -74 70
-72 71 31 5 53 -34 71 -41 77 -30 14 22 6 31 -77 84 -116 76 -174 122 -174
140 0 9 11 29 25 46 15 18 25 42 25 62 0 55 -64 105 -112 87 -19 -7 -26 -3
-40 20 -22 37 -37 36 -73 -1z m51 -77 c16 -63 58 -71 67 -13 5 33 39 33 57 0
8 -15 5 -25 -20 -53 -39 -45 -40 -85 -1 -126 l29 -31 -28 0 c-16 0 -58 -16
-94 -35 -73 -38 -97 -43 -116 -20 -18 22 -4 61 39 108 49 53 56 76 41 137 -11
47 -8 70 9 70 4 0 12 -16 17 -37z"/>
<path d="M1584 2866 c-82 -24 -161 -65 -215 -114 -79 -70 -74 -63 -328 -549
-66 -128 -121 -242 -121 -253 0 -14 7 -20 21 -20 17 0 154 32 301 71 36 9 84
69 631 801 l28 37 -53 16 c-77 23 -202 28 -264 11z"/>
<path d="M4313 2825 c-7 -20 24 -106 45 -122 21 -17 57 -16 71 1 9 11 9 22 -2
48 -30 69 -98 113 -114 73z"/>
<path d="M544 1996 c-7 -31 30 -106 54 -106 28 0 62 29 62 54 0 59 -102 105
-116 52z"/>
<path d="M4410 1968 c-29 -47 -34 -74 -20 -108 13 -30 41 -47 61 -34 17 10 39
70 39 104 0 72 -46 93 -80 38z m27 -70 c-3 -8 -6 -5 -6 6 -1 11 2 17 5 13 3
-3 4 -12 1 -19z"/>
<path d="M2735 1824 c-55 -42 -240 -182 -412 -311 l-312 -234 -15 -52 c-24
-87 -66 -267 -66 -288 0 -13 7 -19 21 -19 12 0 115 49 228 109 113 59 267 139
341 177 109 56 148 82 201 134 123 121 177 278 150 435 -7 39 -18 82 -24 98
l-12 27 -100 -76z"/>
<path d="M1458 1710 c-62 -19 -100 -53 -168 -157 -83 -125 -159 -270 -200
-383 -27 -72 -29 -85 -17 -98 13 -12 27 -9 108 23 197 78 462 236 500 298 31
51 42 106 31 152 l-10 40 -1 -38 c-2 -58 -28 -94 -106 -146 -145 -98 -335
-185 -356 -164 -34 34 167 410 240 447 16 9 47 16 68 17 34 1 35 2 13 9 -32
10 -68 10 -102 0z"/>
<path d="M1908 1372 c-26 -29 -38 -59 -37 -94 1 -32 1 -32 17 14 9 25 25 55
35 66 10 11 14 23 9 26 -5 3 -16 -2 -24 -12z"/>
<path d="M1665 1221 c-112 -79 -128 -97 -121 -134 3 -18 15 -43 25 -57 16 -23
26 -25 99 -28 75 -3 83 -5 105 -32 28 -32 37 -30 37 10 0 47 -32 65 -118 65
-72 0 -77 2 -91 26 -20 35 -10 55 45 87 75 44 96 65 92 90 -3 21 -7 20 -73
-27z"/>
</g>
</svg>
